<svg version="1.1" xmlns="http://www.w3.org/2000/svg" xmlns:xlink="http://www.w3.org/1999/xlink">
    <symbol id="search-icon" viewBox="0 0 24 24">
        <g>
            <path d="M11.0887 4C15.0017 4 18.1774 7.17574 18.1774 11.0887C18.1774 15.0017 15.0017 18.1774 11.0887 18.1774C7.17574 18.1774 4 15.0017 4 11.0887C4 7.17574 7.17574 4 11.0887 4ZM11.0887 16.6021C14.1345 16.6021 16.6021 14.1345 16.6021 11.0887C16.6021 8.04214 14.1345 5.57527 11.0887 5.57527C8.04214 5.57527 5.57527 8.04214 5.57527 11.0887C5.57527 14.1345 8.04214 16.6021 11.0887 16.6021ZM17.7718 16.6581L20 18.8855L18.8855 20L16.6581 17.7718L17.7718 16.6581Z"/>
        </g>
    </symbol>

    <symbol id="close-icon" viewBox="0 0 24 24">
        <g>
            <path d="M6.4 19L5 17.6L10.6 12L5 6.4L6.4 5L12 10.6L17.6 5L19 6.4L13.4 12L19 17.6L17.6 19L12 13.4L6.4 19Z"/>
        </g>
    </symbol>

    <symbol id="cart-icon" viewBox="0 0 24 24">
        <g>
            <path d="M18.0869 12.6144L18.9905 7.65906C19.0062 7.57396 19.0024 7.48638 18.9793 7.40296C18.9562 7.31955 18.9144 7.24248 18.8571 7.17761C18.8024 7.11063 18.7335 7.05663 18.6554 7.01949C18.5772 6.98234 18.4919 6.96298 18.4054 6.96281H6.4588L6.09588 4.97032C6.04575 4.69829 5.90206 4.45237 5.68969 4.27516C5.47732 4.09795 5.20966 4.00061 4.93308 4H3.59251C3.43537 4 3.28466 4.06243 3.17354 4.17356C3.06243 4.28468 3 4.4354 3 4.59256C3 4.74972 3.06243 4.90044 3.17354 5.01157C3.28466 5.12269 3.43537 5.18512 3.59251 5.18512H4.93308L6.96243 16.3697C6.6731 16.6246 6.46054 16.9551 6.34863 17.3241C6.23672 17.6931 6.22989 18.086 6.32891 18.4587C6.42794 18.8313 6.62889 19.169 6.90919 19.4338C7.1895 19.6986 7.53807 19.8799 7.91576 19.9576C8.29344 20.0352 8.68528 20.0059 9.04727 19.8732C9.40926 19.7404 9.72707 19.5093 9.96501 19.2059C10.2029 18.9024 10.3516 18.5387 10.3942 18.1554C10.4369 17.7722 10.3718 17.3847 10.2064 17.0363H14.1615C13.9689 17.4424 13.9134 17.9 14.0033 18.3403C14.0933 18.7805 14.3237 19.1797 14.6601 19.4777C14.9965 19.7757 15.4205 19.9563 15.8684 19.9924C16.3163 20.0286 16.7638 19.9182 17.1436 19.678C17.5234 19.4378 17.8149 19.0808 17.9742 18.6606C18.1335 18.2404 18.1521 17.7798 18.0271 17.3482C17.9021 16.9166 17.6403 16.5372 17.281 16.2672C16.9218 15.9972 16.4846 15.8512 16.0353 15.8512H8.0734L7.74751 14.0735H16.339C16.755 14.0733 17.1578 13.9272 17.4772 13.6606C17.7966 13.3939 18.0123 13.0237 18.0869 12.6144ZM9.22139 17.9252C9.22139 18.101 9.16927 18.2728 9.07161 18.419C8.97395 18.5652 8.83514 18.6791 8.67274 18.7464C8.51034 18.8136 8.33164 18.8312 8.15923 18.7969C7.98683 18.7627 7.82846 18.678 7.70417 18.5537C7.57987 18.4294 7.49522 18.271 7.46093 18.0986C7.42664 17.9262 7.44424 17.7475 7.5115 17.585C7.57877 17.4226 7.69269 17.2838 7.83885 17.1861C7.985 17.0885 8.15684 17.0363 8.33262 17.0363C8.56834 17.0363 8.7944 17.13 8.96108 17.2967C9.12775 17.4634 9.22139 17.6894 9.22139 17.9252ZM16.9241 17.9252C16.9241 18.101 16.8719 18.2728 16.7743 18.419C16.6766 18.5652 16.5378 18.6791 16.3754 18.7464C16.213 18.8136 16.0343 18.8312 15.8619 18.7969C15.6895 18.7627 15.5311 18.678 15.4068 18.5537C15.2825 18.4294 15.1979 18.271 15.1636 18.0986C15.1293 17.9262 15.1469 17.7475 15.2142 17.585C15.2814 17.4226 15.3954 17.2838 15.5415 17.1861C15.6877 17.0885 15.8595 17.0363 16.0353 17.0363C16.271 17.0363 16.4971 17.13 16.6638 17.2967C16.8304 17.4634 16.9241 17.6894 16.9241 17.9252ZM6.67358 8.14793H17.6943L16.9241 12.3996C16.8997 12.5369 16.8276 12.6612 16.7206 12.7506C16.6136 12.84 16.4784 12.8888 16.339 12.8884H7.53273L6.67358 8.14793Z"/>
            <rect x="13" width="11" height="12" rx="5.5" fill="#C3935B"/>
        </g>
    </symbol>

    <symbol id="prev-icon" viewBox="0 0 30 30">
        <g>
            <path d="M19.275 9.2625L13.5375 15L19.275 20.7375L17.5 22.5L9.99999 15L17.5 7.5L19.275 9.2625Z" />
        </g>
    </symbol>

    <symbol id="next-icon" viewBox="0 0 30 30">
        <g>
            <path d="M10.725 20.7375L16.4625 15L10.725 9.2625L12.5 7.5L20 15L12.5 22.5L10.725 20.7375Z" />
        </g>
    </symbol>

    <symbol id="cart-2-icon" viewBox="0 0 24 24">
        <g>
            <path d="M18.0869 12.6144L18.9905 7.65906C19.0062 7.57396 19.0024 7.48638 18.9793 7.40296C18.9562 7.31955 18.9144 7.24248 18.8571 7.17761C18.8024 7.11063 18.7335 7.05663 18.6554 7.01949C18.5772 6.98234 18.4919 6.96298 18.4054 6.96281H6.4588L6.09588 4.97032C6.04575 4.69829 5.90206 4.45237 5.68969 4.27516C5.47732 4.09795 5.20966 4.00061 4.93308 4H3.59251C3.43537 4 3.28466 4.06243 3.17354 4.17356C3.06243 4.28468 3 4.4354 3 4.59256C3 4.74972 3.06243 4.90044 3.17354 5.01157C3.28466 5.12269 3.43537 5.18512 3.59251 5.18512H4.93308L6.96243 16.3697C6.6731 16.6246 6.46054 16.9551 6.34863 17.3241C6.23672 17.6931 6.22989 18.086 6.32891 18.4587C6.42794 18.8313 6.62889 19.169 6.90919 19.4338C7.1895 19.6986 7.53807 19.8799 7.91576 19.9576C8.29344 20.0352 8.68528 20.0059 9.04727 19.8732C9.40926 19.7404 9.72707 19.5093 9.96501 19.2059C10.2029 18.9024 10.3516 18.5387 10.3942 18.1554C10.4369 17.7722 10.3718 17.3847 10.2064 17.0363H14.1615C13.9689 17.4424 13.9134 17.9 14.0033 18.3403C14.0933 18.7805 14.3237 19.1797 14.6601 19.4777C14.9965 19.7757 15.4205 19.9563 15.8684 19.9924C16.3163 20.0286 16.7638 19.9182 17.1436 19.678C17.5234 19.4378 17.8149 19.0808 17.9742 18.6606C18.1335 18.2404 18.1521 17.7798 18.0271 17.3482C17.9021 16.9166 17.6403 16.5372 17.281 16.2672C16.9218 15.9972 16.4846 15.8512 16.0353 15.8512H8.0734L7.74751 14.0735H16.339C16.755 14.0733 17.1578 13.9272 17.4772 13.6606C17.7966 13.3939 18.0123 13.0237 18.0869 12.6144ZM9.22139 17.9252C9.22139 18.101 9.16927 18.2728 9.07161 18.419C8.97395 18.5652 8.83514 18.6791 8.67274 18.7464C8.51034 18.8136 8.33164 18.8312 8.15923 18.7969C7.98683 18.7627 7.82846 18.678 7.70417 18.5537C7.57987 18.4294 7.49522 18.271 7.46093 18.0986C7.42664 17.9262 7.44424 17.7475 7.5115 17.585C7.57877 17.4226 7.69269 17.2838 7.83885 17.1861C7.985 17.0885 8.15684 17.0363 8.33262 17.0363C8.56834 17.0363 8.7944 17.13 8.96108 17.2967C9.12775 17.4634 9.22139 17.6894 9.22139 17.9252ZM16.9241 17.9252C16.9241 18.101 16.8719 18.2728 16.7743 18.419C16.6766 18.5652 16.5378 18.6791 16.3754 18.7464C16.213 18.8136 16.0343 18.8312 15.8619 18.7969C15.6895 18.7627 15.5311 18.678 15.4068 18.5537C15.2825 18.4294 15.1979 18.271 15.1636 18.0986C15.1293 17.9262 15.1469 17.7475 15.2142 17.585C15.2814 17.4226 15.3954 17.2838 15.5415 17.1861C15.6877 17.0885 15.8595 17.0363 16.0353 17.0363C16.271 17.0363 16.4971 17.13 16.6638 17.2967C16.8304 17.4634 16.9241 17.6894 16.9241 17.9252ZM6.67358 8.14793H17.6943L16.9241 12.3996C16.8997 12.5369 16.8276 12.6612 16.7206 12.7506C16.6136 12.84 16.4784 12.8888 16.339 12.8884H7.53273L6.67358 8.14793Z" />
        </g>
    </symbol>

    <symbol id="diamonds-icon" viewBox="0 0 25 25">
        <g>
            <path d="M22.9166 9.37508L18.75 4.16675H6.24998L2.08331 9.37508M22.9166 9.37508L12.5 21.8751M22.9166 9.37508H2.08331M22.9166 9.37508L20.8333 6.77091M12.5 21.8751L2.08331 9.37508M12.5 21.8751L8.33331 9.37508M12.5 21.8751L16.6666 9.37508M2.08331 9.37508L4.16665 6.77091" stroke="#C3935B" stroke-linecap="round" stroke-linejoin="round"/>
        </g>
    </symbol>
</svg>