<svg version="1.1" xmlns="http://www.w3.org/2000/svg" xmlns:xlink="http://www.w3.org/1999/xlink">
    <symbol id="search-icon" viewBox="0 0 24 24">
        <g>
            <path d="M11.0887 4C15.0017 4 18.1774 7.17574 18.1774 11.0887C18.1774 15.0017 15.0017 18.1774 11.0887 18.1774C7.17574 18.1774 4 15.0017 4 11.0887C4 7.17574 7.17574 4 11.0887 4ZM11.0887 16.6021C14.1345 16.6021 16.6021 14.1345 16.6021 11.0887C16.6021 8.04214 14.1345 5.57527 11.0887 5.57527C8.04214 5.57527 5.57527 8.04214 5.57527 11.0887C5.57527 14.1345 8.04214 16.6021 11.0887 16.6021ZM17.7718 16.6581L20 18.8855L18.8855 20L16.6581 17.7718L17.7718 16.6581Z"/>
        </g>
    </symbol>

    <symbol id="close-icon" viewBox="0 0 24 24">
        <g>
            <path d="M6.4 19L5 17.6L10.6 12L5 6.4L6.4 5L12 10.6L17.6 5L19 6.4L13.4 12L19 17.6L17.6 19L12 13.4L6.4 19Z"/>
        </g>
    </symbol>


</svg>